<svg xmlns="http://www.w3.org/2000/svg" xmlns:xlink="http://www.w3.org/1999/xlink" width="183" viewBox="0 0 137.25 37.5" height="50" preserveAspectRatio="xMidYMid meet"><defs><g></g><clipPath id="fe2026b1d7"><path d="M 0.542969 0.480469 L 133.757812 0.480469 L 133.757812 36.515625 L 0.542969 36.515625 Z M 0.542969 0.480469 " clip-rule="nonzero"></path></clipPath><clipPath id="b95072a16f"><path d="M 6.808594 4.550781 L 67.308594 4.550781 L 67.308594 33.160156 L 6.808594 33.160156 Z M 6.808594 4.550781 " clip-rule="nonzero"></path></clipPath></defs><g clip-path="url(#fe2026b1d7)"><path stroke-linecap="butt" transform="matrix(0.740132, 0, 0, 0.740132, 0.544295, 0.482283)" fill="none" stroke-linejoin="miter" d="M -0.00179179 -0.00245109 L 180.392649 -0.00245109 L 180.392649 48.685048 L -0.00179179 48.685048 Z M -0.00179179 -0.00245109 " stroke="#000000" stroke-width="2" stroke-opacity="1" stroke-miterlimit="4"></path></g><g clip-path="url(#b95072a16f)"><path fill="#000000" d="M 6.808594 4.550781 L 67.265625 4.550781 L 67.265625 33.160156 L 6.808594 33.160156 Z M 6.808594 4.550781 " fill-opacity="1" fill-rule="nonzero"></path></g><g fill="#ffffff" fill-opacity="1"><g transform="translate(14.753138, 22.984114)"><g><path d="M 5.65625 0.179688 C 7.992188 0.179688 9.886719 -1.234375 10.460938 -3.378906 L 9.183594 -3.378906 C 8.691406 -1.9375 7.332031 -1.03125 5.699219 -1.03125 C 3.554688 -1.03125 2.03125 -2.582031 2.03125 -4.804688 C 2.03125 -7.03125 3.554688 -8.582031 5.699219 -8.582031 C 7.289062 -8.582031 8.59375 -7.730469 9.089844 -6.34375 L 10.378906 -6.34375 C 9.746094 -8.457031 7.921875 -9.789062 5.65625 -9.789062 C 2.828125 -9.789062 0.796875 -7.703125 0.796875 -4.804688 C 0.796875 -1.910156 2.828125 0.179688 5.65625 0.179688 Z M 5.65625 0.179688 "></path></g></g></g><g fill="#ffffff" fill-opacity="1"><g transform="translate(26.997954, 22.984114)"><g><path d="M 5.765625 0.179688 C 8.691406 0.179688 10.75 -1.882812 10.75 -4.804688 C 10.75 -7.730469 8.691406 -9.789062 5.765625 -9.789062 C 2.84375 -9.789062 0.796875 -7.730469 0.796875 -4.804688 C 0.796875 -1.882812 2.84375 0.179688 5.765625 0.179688 Z M 2.03125 -4.804688 C 2.03125 -7.042969 3.554688 -8.582031 5.765625 -8.582031 C 7.976562 -8.582031 9.5 -7.042969 9.5 -4.804688 C 9.5 -2.566406 7.976562 -1.03125 5.765625 -1.03125 C 3.554688 -1.03125 2.03125 -2.566406 2.03125 -4.804688 Z M 2.03125 -4.804688 "></path></g></g></g><g fill="#ffffff" fill-opacity="1"><g transform="translate(39.572224, 22.984114)"><g><path d="M 1.402344 0 L 4.722656 0 C 7.675781 0 9.652344 -1.964844 9.652344 -4.804688 C 9.652344 -7.648438 7.675781 -9.609375 4.722656 -9.609375 L 1.402344 -9.609375 Z M 2.609375 -1.152344 L 2.609375 -8.457031 L 4.667969 -8.457031 C 6.90625 -8.457031 8.417969 -6.988281 8.417969 -4.804688 C 8.417969 -2.621094 6.917969 -1.152344 4.722656 -1.152344 Z M 2.609375 -1.152344 "></path></g></g></g><g fill="#ffffff" fill-opacity="1"><g transform="translate(51.062059, 22.984114)"><g><path d="M 1.402344 0 L 7.386719 0 L 7.386719 -1.125 L 2.609375 -1.125 L 2.609375 -4.339844 L 6.890625 -4.339844 L 6.890625 -5.449219 L 2.609375 -5.449219 L 2.609375 -8.484375 L 7.234375 -8.484375 L 7.234375 -9.609375 L 1.402344 -9.609375 Z M 1.402344 0 "></path></g></g></g><g fill="#000000" fill-opacity="1"><g transform="translate(72.43225, 23.724246)"><g><path d="M 6.101562 0.21875 L 6.265625 0.21875 L 6.53125 0.839844 C 7.074219 2.101562 8.074219 2.75 9.53125 2.75 L 11.058594 2.75 L 11.058594 0.660156 L 10.308594 0.660156 C 9.472656 0.660156 9.25 0.515625 8.972656 -0.117188 L 8.851562 -0.398438 C 10.601562 -1.25 11.707031 -2.984375 11.707031 -5.148438 C 11.707031 -8.292969 9.382812 -10.515625 6.101562 -10.515625 C 2.824219 -10.515625 0.5 -8.292969 0.5 -5.148438 C 0.5 -2 2.824219 0.21875 6.101562 0.21875 Z M 3.515625 -5.148438 C 3.515625 -6.691406 4.589844 -7.765625 6.101562 -7.765625 C 7.632812 -7.765625 8.691406 -6.691406 8.691406 -5.148438 C 8.691406 -3.601562 7.632812 -2.53125 6.101562 -2.53125 C 4.589844 -2.53125 3.515625 -3.601562 3.515625 -5.148438 Z M 3.515625 -5.148438 "></path></g></g></g><g fill="#000000" fill-opacity="1"><g transform="translate(84.646713, 23.724246)"><g><path d="M 5.515625 0.21875 C 8.292969 0.21875 10.015625 -1.46875 10.015625 -4.234375 L 10.015625 -10.292969 L 7.058594 -10.292969 L 7.058594 -4.425781 C 7.058594 -3.207031 6.542969 -2.558594 5.515625 -2.558594 C 4.484375 -2.558594 3.972656 -3.207031 3.972656 -4.425781 L 3.972656 -10.292969 L 1 -10.292969 L 1 -4.234375 C 1 -1.46875 2.734375 0.21875 5.515625 0.21875 Z M 5.515625 0.21875 "></path></g></g></g><g fill="#000000" fill-opacity="1"><g transform="translate(95.670592, 23.724246)"><g><path d="M 1.089844 0 L 4.058594 0 L 4.058594 -10.292969 L 1.089844 -10.292969 Z M 1.089844 0 "></path></g></g></g><g fill="#000000" fill-opacity="1"><g transform="translate(100.815069, 23.724246)"><g><path d="M 1.089844 0 L 4.03125 0 L 4.03125 -5.25 L 7.941406 0 L 10.351562 0 L 10.351562 -10.292969 L 7.425781 -10.292969 L 7.425781 -5.074219 L 3.515625 -10.292969 L 1.089844 -10.292969 Z M 1.089844 0 "></path></g></g></g><g fill="#000000" fill-opacity="1"><g transform="translate(112.26521, 23.724246)"><g><path d="M 3.542969 0 L 6.5 0 L 6.5 -7.542969 L 9.632812 -7.542969 L 9.632812 -10.292969 L 0.410156 -10.292969 L 0.410156 -7.542969 L 3.542969 -7.542969 Z M 3.542969 0 "></path></g></g></g><g fill="#635bff" fill-opacity="1"><g transform="translate(122.310178, 23.724246)"><g><path d="M 2 0.191406 C 2.910156 0.191406 3.558594 -0.457031 3.558594 -1.339844 C 3.558594 -2.21875 2.910156 -2.867188 2 -2.867188 C 1.074219 -2.867188 0.425781 -2.21875 0.425781 -1.339844 C 0.425781 -0.457031 1.074219 0.191406 2 0.191406 Z M 2 0.191406 "></path></g></g></g></svg>